# xmcd
#
# Track frame offsets: 
#        150
#        21195
#        39476
#        59659
#        82360
#        101289
#        117681
#        134745
#        149035
#        180603
#        199035
#        217970
#
# Disc length: 3082 seconds
#
# Revision: 0
# Processed by: cddbd v1.5.2PL0 Copyright (c) Steve Scherf et al.
# Submitted via: ExactAudioCopy v1.3
#
DISCID=bf0c080c
DTITLE=Johnny Neel - Late Night Breakfast
DYEAR=2000
DGENRE=Rockin' Blues
TTITLE0=Full Tank Of Love
TTITLE1=Good Lovin' is Hard To Find
TTITLE2=Caught Me On My Blind Side
TTITLE3=If It's All The Same To You
TTITLE4=Love To Burn
TTITLE5=New Where To Be
TTITLE6=Come Around To Me
TTITLE7=Don't Want To Discuss It
TTITLE8=Murdered By Love
TTITLE9=Late Night Breakfast
TTITLE10=Willin' To Crawl
TTITLE11=Blue Ink
EXTD=
EXTT0=
EXTT1=
EXTT2=
EXTT3=
EXTT4=
EXTT5=
EXTT6=
EXTT7=
EXTT8=
EXTT9=
EXTT10=
EXTT11=
PLAYORDER=
